<?xml version="1.0" encoding="UTF-8"?>
<svg id="Layer_2" data-name="Layer 2" xmlns="http://www.w3.org/2000/svg" viewBox="0 0 44.2 44.18">
  <defs>
    <style>
      .cls-1 {
        fill: #f17140;
        stroke-width: 0px;
      }
    </style>
  </defs>
  <g id="Layer_1-2" data-name="Layer 1">
    <g>
      <path class="cls-1" d="M44.2,21.08l-.04-.46c-.03-.29-.05-.58-.08-.87-.31-2.96-1.18-5.73-2.58-8.24-3.16-5.63-7.95-9.29-14.22-10.89-1.21-.31-2.52-.5-3.9-.57-.04,0-.08-.01-.12-.02l-.15.38v-.4s-2.04.01-2.04.01l-.13.02c-1.67.08-3.33.36-4.92.83-3.36.98-6.34,2.66-8.87,5l.2-2.43c.02-.26-.17-.49-.44-.52l-3.78-.31c-.23-.02-.49.18-.51.44l-.99,12.19c-.01.14.04.29.14.39l.21.16,12.57-1.84c.26-.04.44-.28.4-.54l-.55-3.74c-.04-.26-.28-.44-.54-.4l-3.02.44c4.88-4.54,12.11-5.69,18.29-2.84,7.26,3.35,11.12,11.13,9.38,18.92-1.7,7.6-8.58,13.1-16.39,13.1h-.06c-3.94-.01-7.46-1.27-10.45-3.72-4.26-3.5-6.37-8.15-6.28-13.82,0-.24-.17-.44-.4-.48l-4.29-.7c-.13-.02-.26.01-.36.09l-.16.15-.1,2.45.06.66c.03.32.06.64.09.97.3,2.91,1.17,5.67,2.57,8.19,2.57,4.64,6.37,8,11.31,9.99,2.15.87,4.45,1.37,6.83,1.5.04,0,.08.01.13.02l.16.02h1.98s.41-.04.41-.04c.31-.03.62-.06.93-.09,3.18-.33,6.15-1.31,8.82-2.92,5.38-3.23,8.86-7.97,10.35-14.09.28-1.15.46-2.38.52-3.68,0-.05.01-.1.02-.14l.02-.16v-1.98Z"/>
      <path class="cls-1" d="M24.52,9.88c0-.34-.27-.61-.61-.61h-3.96c-.34,0-.61.28-.61.61v1.17c0,3.9,0,7.8,0,11.71,0,.26.13.59.31.78l9.43,9.7c.11.14.27.22.45.23.01,0,.02,0,.03,0,.17,0,.33-.07.45-.19l2.88-2.98-1-1.12c-2.42-2.52-4.84-5.05-7.26-7.57-.08-.08-.12-.19-.12-.3,0-3.03,0-6.06,0-9.09v-2.35Z"/>
    </g>
  </g>
</svg>