<?xml version="1.0" encoding="UTF-8"?>
<svg id="Layer_2" data-name="Layer 2" xmlns="http://www.w3.org/2000/svg" viewBox="0 0 50.72 43.18">
  <defs>
    <style>
      .cls-1 {
        fill: #f17140;
        stroke-width: 0px;
      }
    </style>
  </defs>
  <g id="Layer_1-2" data-name="Layer 1">
    <path class="cls-1" d="M49.69,2.28c-1.2-1.69-2.98-2.46-5.28-2.24-6.72.6-13.44,1.2-20.17,1.79l-11.08.98c-3.64.32-7.28.64-10.93.99-.59.06-1.14.25-1.5.53C.27,4.71,0,5.23,0,5.81c0,.65.32,1.28.88,1.74,1.68,1.37,3.37,2.74,5.06,4.1l9.96,8.06,9.88-5.35c2.37-1.28,4.75-2.57,7.12-3.86.57-.31,1.05-.29,1.52.08.34.26.51.62.47,1.03-.04.46-.34.89-.81,1.15l-16.92,9.16.65,6.55c.41,4.18.82,8.36,1.25,12.54.03.33.14.94.5,1.4.39.49.92.77,1.5.77h.01c.66,0,1.32-.35,1.81-.97l19.31-24.25c2.42-3.04,4.84-6.08,7.26-9.12,1.59-2.01,1.68-4.52.23-6.57Z"/>
  </g>
</svg>