<?xml version="1.0" encoding="UTF-8"?>
<svg id="Layer_2" data-name="Layer 2" xmlns="http://www.w3.org/2000/svg" viewBox="0 0 41.13 38.3">
  <defs>
    <style>
      .cls-1 {
        fill: #f17140;
        stroke-width: 0px;
      }
    </style>
  </defs>
  <g id="Layer_1-2" data-name="Layer 1">
    <g>
      <path class="cls-1" d="M41.04,29.19c-.4-1.83-2.43-2.97-4.06-3.89-.29-.16-.56-.31-.81-.46-1.94-1.16-4.2-2.23-6.31-1.37-1.19.48-2.03,1.84-2.78,3.04-.32.51-.62,1-.92,1.36-.38.47-.81.56-1.46.3-5.62-2.24-10.08-6.06-13.27-11.38-.43-.65-.38-1.12.18-1.78l.26-.31c.94-1.1,2.01-2.34,2.27-3.85.28-1.63-.46-3.49-1.12-4.93-.11-.23-.22-.48-.33-.74-.74-1.67-1.67-3.75-3.3-4.67-1.89-1.06-4.17-.36-5.61.8C1.34,3.32-.04,6.46,0,9.94c.01.92.12,1.84.34,2.72.44,1.82,1.23,3.65,2.57,5.93.82,1.39,1.71,2.76,2.66,4.05,3.25,4.41,7.13,8.02,11.55,10.73,2.46,1.51,4.89,2.66,7.22,3.43l.63.21c1.98.66,3.88,1.3,5.97,1.3.62,0,1.25-.06,1.91-.18,3.63-.69,6.62-2.93,7.82-5.84.45-1.09.57-2.16.37-3.09Z"/>
      <path class="cls-1" d="M21.28,11c-1,0-1.81.81-1.81,1.81s.81,1.81,1.81,1.81h.38v2.85h3.65v-2.85h3.3l2.34,2.85h2.96v-2.85h.38c1,0,1.81-.81,1.81-1.81s-.81-1.81-1.81-1.81h-.38v-.34h.38c1,0,1.81-.81,1.81-1.81s-.81-1.81-1.81-1.81h-.38v-2.85h-3.65v2.85h-3.29l-2.34-2.85h-2.98v2.85h-.38c-1,0-1.81.81-1.81,1.81s.81,1.81,1.81,1.81h.38v.34h-.38Z"/>
    </g>
  </g>
</svg>