<?xml version="1.0" encoding="UTF-8"?>
<svg id="Layer_2" data-name="Layer 2" xmlns="http://www.w3.org/2000/svg" xmlns:xlink="http://www.w3.org/1999/xlink" viewBox="0 0 654 312">
  <defs>
    <style>
      .cls-1 {
        filter: url(#drop-shadow-2);
      }

      .cls-1, .cls-2, .cls-3, .cls-4, .cls-5, .cls-6, .cls-7 {
        stroke-width: 0px;
      }

      .cls-1, .cls-3, .cls-4, .cls-5, .cls-6, .cls-7 {
        fill: #fff;
      }

      .cls-8 {
        letter-spacing: .01em;
      }

      .cls-2, .cls-9 {
        fill: #f17140;
      }

      .cls-10 {
        letter-spacing: 0em;
      }

      .cls-3 {
        filter: url(#drop-shadow-1);
      }

      .cls-11 {
        letter-spacing: -.02em;
      }

      .cls-12 {
        letter-spacing: 0em;
      }

      .cls-9 {
        font-family: Montserrat-Regular, Montserrat;
        font-size: 15.87px;
      }

      .cls-13 {
        letter-spacing: 0em;
      }

      .cls-4 {
        filter: url(#drop-shadow-4);
      }

      .cls-5 {
        filter: url(#drop-shadow-5);
      }

      .cls-14 {
        letter-spacing: 0em;
      }

      .cls-15 {
        letter-spacing: 0em;
      }

      .cls-6 {
        filter: url(#drop-shadow-6);
      }

      .cls-16 {
        letter-spacing: 0em;
      }

      .cls-7 {
        filter: url(#drop-shadow-3);
      }

      .cls-17 {
        letter-spacing: 0em;
      }

      .cls-18 {
        letter-spacing: 0em;
      }

      .cls-19 {
        letter-spacing: -.01em;
      }

      .cls-20 {
        letter-spacing: 0em;
      }

      .cls-21 {
        letter-spacing: -.01em;
      }
    </style>
    <filter id="drop-shadow-1" filterUnits="userSpaceOnUse">
      <feOffset dx="0" dy="2"/>
      <feGaussianBlur result="blur" stdDeviation="4"/>
      <feFlood flood-color="#000" flood-opacity=".4"/>
      <feComposite in2="blur" operator="in"/>
      <feComposite in="SourceGraphic"/>
    </filter>
    <filter id="drop-shadow-2" filterUnits="userSpaceOnUse">
      <feOffset dx="0" dy="2"/>
      <feGaussianBlur result="blur-2" stdDeviation="4"/>
      <feFlood flood-color="#000" flood-opacity=".4"/>
      <feComposite in2="blur-2" operator="in"/>
      <feComposite in="SourceGraphic"/>
    </filter>
    <filter id="drop-shadow-3" filterUnits="userSpaceOnUse">
      <feOffset dx="0" dy="2"/>
      <feGaussianBlur result="blur-3" stdDeviation="4"/>
      <feFlood flood-color="#000" flood-opacity=".4"/>
      <feComposite in2="blur-3" operator="in"/>
      <feComposite in="SourceGraphic"/>
    </filter>
    <filter id="drop-shadow-4" filterUnits="userSpaceOnUse">
      <feOffset dx="0" dy="2"/>
      <feGaussianBlur result="blur-4" stdDeviation="4"/>
      <feFlood flood-color="#000" flood-opacity=".4"/>
      <feComposite in2="blur-4" operator="in"/>
      <feComposite in="SourceGraphic"/>
    </filter>
    <filter id="drop-shadow-5" filterUnits="userSpaceOnUse">
      <feOffset dx="0" dy="2"/>
      <feGaussianBlur result="blur-5" stdDeviation="4"/>
      <feFlood flood-color="#000" flood-opacity=".4"/>
      <feComposite in2="blur-5" operator="in"/>
      <feComposite in="SourceGraphic"/>
    </filter>
    <filter id="drop-shadow-6" filterUnits="userSpaceOnUse">
      <feOffset dx="0" dy="2"/>
      <feGaussianBlur result="blur-6" stdDeviation="4"/>
      <feFlood flood-color="#000" flood-opacity=".4"/>
      <feComposite in2="blur-6" operator="in"/>
      <feComposite in="SourceGraphic"/>
    </filter>
  </defs>
  <g id="Layer_1-2" data-name="Layer 1">
    <rect class="cls-3" x="248.26" y="10.51" width="157.28" height="113.85" rx="10" ry="10"/>
    <text class="cls-9" transform="translate(297.2 101.68)"><tspan x="0" y="0">Ai</tspan><tspan class="cls-8" x="15.64" y="0">r</tspan><tspan class="cls-18" x="22.24" y="0">ti</tspan><tspan class="cls-16" x="32.95" y="0">m</tspan><tspan x="49.82" y="0">e</tspan></text>
    <g>
      <path class="cls-2" d="M347.37,66.58c-.4-1.83-2.43-2.97-4.06-3.89-.29-.16-.56-.31-.81-.46-1.94-1.16-4.2-2.23-6.31-1.37-1.19.48-2.03,1.84-2.78,3.04-.32.51-.62,1-.92,1.36-.38.47-.81.56-1.46.3-5.62-2.24-10.08-6.06-13.27-11.38-.43-.65-.38-1.12.18-1.78l.26-.31c.94-1.1,2.01-2.34,2.27-3.85.28-1.63-.46-3.49-1.12-4.93-.11-.23-.22-.48-.33-.74-.74-1.67-1.67-3.75-3.3-4.67-1.89-1.06-4.17-.36-5.61.8-2.44,1.99-3.82,5.13-3.78,8.61.01.92.12,1.84.34,2.72.44,1.82,1.23,3.65,2.57,5.93.82,1.39,1.71,2.76,2.66,4.05,3.25,4.41,7.13,8.02,11.55,10.73,2.46,1.51,4.89,2.66,7.22,3.43l.63.21c1.98.66,3.88,1.3,5.97,1.3.62,0,1.25-.06,1.91-.18,3.63-.69,6.62-2.93,7.82-5.84.45-1.09.57-2.16.37-3.09Z"/>
      <path class="cls-2" d="M327.62,48.4c-1,0-1.81.81-1.81,1.81s.81,1.81,1.81,1.81h.38v2.85h3.65v-2.85h3.3l2.34,2.85h2.96v-2.85h.38c1,0,1.81-.81,1.81-1.81s-.81-1.81-1.81-1.81h-.38v-.34h.38c1,0,1.81-.81,1.81-1.81s-.81-1.81-1.81-1.81h-.38v-2.85h-3.65v2.85h-3.29l-2.34-2.85h-2.98v2.85h-.38c-1,0-1.81.81-1.81,1.81s.81,1.81,1.81,1.81h.38v.34h-.38Z"/>
    </g>
    <rect class="cls-1" x="248.07" y="183.71" width="157.28" height="113.85" rx="10" ry="10"/>
    <text class="cls-9" transform="translate(277.38 274.53)"><tspan class="cls-11" x="0" y="0">E</tspan><tspan class="cls-14" x="10.38" y="0">x</tspan><tspan class="cls-18" x="18.69" y="0">am Resu</tspan><tspan class="cls-17" x="88.53" y="0">l</tspan><tspan x="92.83" y="0">t</tspan></text>
    <path class="cls-2" d="M345.81,239.66c-2.73-2.73-5.47-5.46-8.2-8.19,2.86-4.03,3.9-8.54,3.11-13.42-.51-3.13-1.78-5.89-3.76-8.23-4.05-4.74-9.23-6.89-15.47-6.38-3.14.25-6.3,1.52-9.39,3.78-3.84,3.4-6.01,7.46-6.46,12.07l-.17,1.81v.06c.05.49.11.98.16,1.48.14,1.46.4,2.9.9,4.28,1.68,4.57,4.71,7.96,9.01,10.09,2.03,1.02,4.22,1.6,6.47,1.73.97.06,2,.03,3.36-.1,2.22-.21,4.41-.92,6.52-2.11,2.19,2.21,4.38,4.41,6.58,6.6l3.6,3.62s.08.11.11.16l.32.48,5.25-5.24.21-.29-2.16-2.21ZM333.35,221.08c0,3.68-1.98,7.06-5.44,8.95-1.43.79-3.05,1.13-4.68,1.13h-.02c-5.52,0-10.03-4.52-10.03-10.08,0-2.71,1.05-5.25,2.95-7.14,1.9-1.9,4.44-2.95,7.16-2.95,1.62,0,3.24.33,4.65,1.13,3.44,1.89,5.41,5.28,5.41,8.96Z"/>
    <rect class="cls-7" x="484.31" y="183.71" width="157.28" height="113.85" rx="10" ry="10"/>
    <text class="cls-9" transform="translate(533.56 274.88)"><tspan class="cls-20" x="0" y="0">A</tspan><tspan class="cls-15" x="11.3" y="0">c</tspan><tspan x="20.32" y="0">tivi</tspan><tspan class="cls-19" x="43.9" y="0">t</tspan><tspan x="50.19" y="0">y</tspan></text>
    <g>
      <path class="cls-2" d="M585.05,225.79l-.04-.46c-.03-.29-.05-.58-.08-.87-.31-2.96-1.18-5.73-2.58-8.24-3.16-5.63-7.95-9.29-14.22-10.89-1.21-.31-2.52-.5-3.9-.57-.04,0-.08-.01-.12-.02l-.15.38v-.4s-2.04.01-2.04.01l-.13.02c-1.67.08-3.33.36-4.92.83-3.36.98-6.34,2.66-8.87,5l.2-2.43c.02-.26-.17-.49-.44-.52l-3.78-.31c-.23-.02-.49.18-.51.44l-.99,12.19c-.01.14.04.29.14.39l.21.16,12.57-1.84c.26-.04.44-.28.4-.54l-.55-3.74c-.04-.26-.28-.44-.54-.4l-3.02.44c4.88-4.54,12.11-5.69,18.29-2.84,7.26,3.35,11.12,11.13,9.38,18.92-1.7,7.6-8.58,13.1-16.39,13.1h-.06c-3.94-.01-7.46-1.27-10.45-3.72-4.26-3.5-6.37-8.15-6.28-13.82,0-.24-.17-.44-.4-.48l-4.29-.7c-.13-.02-.26.01-.36.09l-.16.15-.1,2.45.06.66c.03.32.06.64.09.97.3,2.91,1.17,5.67,2.57,8.19,2.57,4.64,6.37,8,11.31,9.99,2.15.87,4.45,1.37,6.83,1.5.04,0,.08.01.13.02l.16.02h1.98s.41-.04.41-.04c.31-.03.62-.06.93-.09,3.18-.33,6.15-1.31,8.82-2.92,5.38-3.23,8.86-7.97,10.35-14.09.28-1.15.46-2.38.52-3.68,0-.05.01-.1.02-.14l.02-.16v-1.98Z"/>
      <path class="cls-2" d="M565.37,214.59c0-.34-.27-.61-.61-.61h-3.96c-.34,0-.61.28-.61.61v1.17c0,3.9,0,7.8,0,11.71,0,.26.13.59.31.78l9.43,9.7c.11.14.27.22.45.23.01,0,.02,0,.03,0,.17,0,.33-.07.45-.19l2.88-2.98-1-1.12c-2.42-2.52-4.84-5.05-7.26-7.57-.08-.08-.12-.19-.12-.3,0-3.03,0-6.06,0-9.09v-2.35Z"/>
    </g>
    <rect class="cls-4" x="484.5" y="10.51" width="157.28" height="113.85" rx="10" ry="10"/>
    <text class="cls-9" transform="translate(544.01 101.68)"><tspan x="0" y="0">Data</tspan></text>
    <g>
      <path class="cls-2" d="M573.08,29.03h-19.86c-3.32,0-6.01,2.7-6.01,6.01v28.15h31.89v-28.15c0-3.32-2.7-6.01-6.01-6.01ZM564.92,49.06h-.79c-.25,0-.41-.13-.46-.25-.03-.08-.08-.22.05-.36l3.43-4.11c.1-.11.24-.17.41-.17.16,0,.3.06.4.17l3.51,4.09c.13.16.1.3.06.38-.06.13-.21.25-.46.25h-.9c-.71,0-1.29.54-1.29,1.21v3.05c0,.22-.22.4-.49.4h-1.68c-.27,0-.49-.17-.49-.4v-3.05c0-.67-.57-1.21-1.28-1.21ZM561.26,52.36h.9c.25,0,.41.14.46.27.03.06.08.22-.05.36l-3.51,4.09c-.09.11-.25.17-.41.17s-.32-.06-.41-.17l-3.43-4.09c-.11-.16-.08-.3-.05-.36.06-.13.21-.27.46-.27h.79c.71,0,1.29-.54,1.29-1.19v-3.05c0-.22.22-.41.51-.41h1.67c.27,0,.49.19.49.41v3.05c0,.65.59,1.19,1.29,1.19ZM563.14,36.65c-1.14,0-2.05-.91-2.05-2.05s.91-2.05,2.05-2.05,2.05.94,2.05,2.05-.91,2.05-2.05,2.05Z"/>
      <path class="cls-2" d="M547.2,69.7c0,3.3,2.7,6,6.01,6h19.86c3.32,0,6.01-2.7,6.01-6v-3.93h-31.89v3.93ZM561.09,70.51c0-1.14.91-2.05,2.05-2.05s2.05.91,2.05,2.05-.91,2.02-2.05,2.02-2.05-.91-2.05-2.02Z"/>
    </g>
    <rect class="cls-5" x="12.5" y="10.51" width="157.28" height="113.85" rx="10" ry="10"/>
    <text class="cls-9" transform="translate(59.06 101.33)"><tspan class="cls-21" x="0" y="0">T</tspan><tspan class="cls-10" x="8.89" y="0">r</tspan><tspan class="cls-18" x="15.1" y="0">ans</tspan><tspan class="cls-10" x="42.97" y="0">f</tspan><tspan class="cls-13" x="48.2" y="0">er</tspan></text>
    <path class="cls-2" d="M115.47,33.28c-1.2-1.69-2.98-2.46-5.28-2.24-6.72.6-13.44,1.2-20.17,1.79l-11.08.98c-3.64.32-7.28.64-10.93.99-.59.06-1.14.25-1.5.53-.47.38-.74.9-.74,1.48,0,.65.32,1.28.88,1.74,1.68,1.37,3.37,2.74,5.06,4.1l9.96,8.06,9.88-5.35c2.37-1.28,4.75-2.57,7.12-3.86.57-.31,1.05-.29,1.52.08.34.26.51.62.47,1.03-.04.46-.34.89-.81,1.15l-16.92,9.16.65,6.55c.41,4.18.82,8.36,1.25,12.54.03.33.14.94.5,1.4.39.49.92.77,1.5.77h.01c.66,0,1.32-.35,1.81-.97l19.31-24.25c2.42-3.04,4.84-6.08,7.26-9.12,1.59-2.01,1.68-4.52.23-6.57Z"/>
    <rect class="cls-6" x="12.84" y="183.71" width="157.28" height="113.85" rx="10" ry="10"/>
    <text class="cls-9" transform="translate(25.2 274.53)"><tspan class="cls-20" x="0" y="0">T</tspan><tspan class="cls-13" x="9.03" y="0">V Subsc</tspan><tspan class="cls-12" x="72.14" y="0">r</tspan><tspan x="78.38" y="0">iptions</tspan></text>
    <g>
      <path class="cls-2" d="M91.47,245.06c-5.58,0-11.17-.02-16.75,0-1.97,0-3.71-1.34-4.15-3.2-.08-.35-.11-.73-.12-1.09,0-5.56,0-11.12,0-16.68,0-2.41,1.85-4.27,4.27-4.27,11.17,0,22.33,0,33.5,0,2.17,0,3.9,1.49,4.25,3.63.03.22.03.44.03.66,0,5.54-.02,11.08.01,16.62.01,2.1-1.48,3.94-3.53,4.27-.28.04-.57.05-.85.05-5.55,0-11.1,0-16.65,0ZM96.54,230.64l-6.2-3.38c-1.38-.75-3.06.25-3.06,1.82v6.75c0,1.57,1.68,2.57,3.06,1.82,2.07-1.12,4.13-2.24,6.2-3.37,1.44-.78,1.44-2.85,0-3.64Z"/>
      <rect class="cls-2" x="74.66" y="212.96" width="33.63" height="4.17" rx="2.07" ry="2.07"/>
      <rect class="cls-2" x="78.86" y="206.08" width="25.21" height="4.14" rx="2.07" ry="2.07"/>
    </g>
  </g>
</svg>