<?xml version="1.0" encoding="UTF-8"?>
<svg id="Layer_2" data-name="Layer 2" xmlns="http://www.w3.org/2000/svg" viewBox="0 0 42.51 44.02">
  <defs>
    <style>
      .cls-1 {
        fill: #f17140;
        stroke-width: 0px;
      }
    </style>
  </defs>
  <g id="Layer_1-2" data-name="Layer 1">
    <path class="cls-1" d="M40.35,36.3c-2.73-2.73-5.47-5.46-8.2-8.19,2.86-4.03,3.9-8.54,3.11-13.42-.51-3.13-1.78-5.89-3.76-8.23C27.45,1.71,22.26-.43,16.02.07c-3.14.25-6.3,1.52-9.39,3.78C2.79,7.24.62,11.31.17,15.92l-.17,1.81v.06c.05.49.11.98.16,1.48.14,1.46.4,2.9.9,4.28,1.68,4.57,4.71,7.96,9.01,10.09,2.03,1.02,4.22,1.6,6.47,1.73.97.06,2,.03,3.36-.1,2.22-.21,4.41-.92,6.52-2.11,2.19,2.21,4.38,4.41,6.58,6.6l3.6,3.62s.08.11.11.16l.32.48,5.25-5.24.21-.29-2.16-2.21ZM27.89,17.72c0,3.68-1.98,7.06-5.44,8.95-1.43.79-3.05,1.13-4.68,1.13h-.02c-5.52,0-10.03-4.52-10.03-10.08,0-2.71,1.05-5.25,2.95-7.14,1.9-1.9,4.44-2.95,7.16-2.95,1.62,0,3.24.33,4.65,1.13,3.44,1.89,5.41,5.28,5.41,8.96Z"/>
  </g>
</svg>