<?xml version="1.0" encoding="UTF-8"?>
<svg id="Layer_2" data-name="Layer 2" xmlns="http://www.w3.org/2000/svg" viewBox="0 0 173.35 29.5">
  <defs>
    <style>
      .cls-1 {
        fill: #f3eb88;
        stroke-width: 0px;
      }
    </style>
  </defs>
  <g id="Layer_1-2" data-name="Layer 1">
    <g>
      <path class="cls-1" d="M113.37,2.87v6.74c.62-1.07,1.52-1.94,2.7-2.61,1.01-.56,2.25-.84,3.71-.84,2.64,0,4.8,1.1,6.49,3.29,1.69,2.19,2.53,5.03,2.53,8.51s-.84,6.32-2.53,8.51c-.84,1.07-1.98,1.84-3.41,2.32-1.43.48-2.85.72-4.26.72-2.7,0-5.2-.7-7.5-2.11-2.3-1.4-3.46-4.1-3.46-8.09V0h2.87c.79,0,1.46.28,2.02.84.56.56.84,1.24.84,2.02ZM122.98,17.7c0-2.02-.42-3.6-1.26-4.72-.84-1.18-2-1.77-3.46-1.77-1.57,0-2.78.56-3.62,1.69-.84,1.18-1.26,2.78-1.26,4.8,0,2.36.39,4.07,1.18,5.14.84,1.18,2.02,1.77,3.54,1.77s2.78-.59,3.62-1.77c.84-1.18,1.26-2.89,1.26-5.14Z"/>
      <path class="cls-1" d="M146.52,22.17h4.21c-.62,2.36-1.8,4.16-3.54,5.39-1.74,1.29-3.93,1.94-6.57,1.94-3.2,0-5.7-1.04-7.5-3.12-1.8-2.02-2.7-4.92-2.7-8.68s.87-6.41,2.61-8.43c1.8-2.08,4.3-3.12,7.5-3.12,3.37,0,5.98,1.01,7.84,3.03,1.8,2.08,2.7,4.97,2.7,8.68v.93c0,.28-.03.48-.08.59h-14.58c.06,1.74.48,3.03,1.26,3.88.73.9,1.82,1.35,3.29,1.35.96,0,1.77-.2,2.44-.59.17-.06.32-.15.46-.29.14-.14.29-.29.46-.46.06-.17.27-.39.63-.67.37-.28.88-.42,1.56-.42ZM136.41,15.59h8.6c-.11-1.52-.51-2.64-1.18-3.37-.73-.79-1.77-1.18-3.12-1.18-1.24,0-2.25.39-3.03,1.18-.79.79-1.21,1.91-1.26,3.37Z"/>
      <path class="cls-1" d="M168.8,22.17h4.21c-.62,2.36-1.8,4.16-3.54,5.39-1.74,1.29-3.93,1.94-6.57,1.94-3.2,0-5.7-1.04-7.5-3.12-1.8-2.02-2.7-4.92-2.7-8.68s.87-6.41,2.61-8.43c1.8-2.08,4.3-3.12,7.5-3.12,3.37,0,5.98,1.01,7.84,3.03,1.8,2.08,2.7,4.97,2.7,8.68v.93c0,.28-.03.48-.08.59h-14.58c.05,1.74.48,3.03,1.26,3.88.73.9,1.82,1.35,3.29,1.35.96,0,1.77-.2,2.44-.59.17-.06.32-.15.46-.29.14-.14.29-.29.46-.46.06-.17.27-.39.63-.67.37-.28.88-.42,1.56-.42ZM158.68,15.59h8.6c-.11-1.52-.51-2.64-1.18-3.37-.73-.79-1.77-1.18-3.12-1.18-1.24,0-2.25.39-3.03,1.18-.79.79-1.21,1.91-1.26,3.37Z"/>
      <path class="cls-1" d="M47.25,7.65c-6.22,0-10.43,4.36-10.47,10.84h0c0,6.49,4.24,11.01,10.32,11.01,1.74,0,3.29-.3,4.86-.98v.42h4.22c.91,0,1.65-.74,1.65-1.65V10.25c0-.79-.56-1.47-1.34-1.62h0c-3.33-.64-5.67-.97-9.25-.97ZM51.96,21.62c0,.64-.37,1.21-.94,1.49-1.24.61-2.35.86-3.63.86-2.93,0-4.75-2.07-4.75-5.39,0-2.01.64-5.39,4.94-5.39.99,0,1.9.03,2.84.11.86.07,1.53.78,1.53,1.65v6.67Z"/>
      <polygon class="cls-1" points="61.02 29.5 66.89 29.5 66.89 29.5 66.89 8.78 66.89 8.78 61.02 8.78 61.02 8.78 61.02 29.5 61.02 29.5"/>
      <path class="cls-1" d="M64.03.61c-1.93-.04-3.48,1.4-3.6,3.3-.06.93.28,1.87.91,2.57.64.71,1.55,1.13,2.49,1.16.04,0,.08,0,.13,0,.94,0,1.82-.35,2.48-.99.72-.7,1.1-1.67,1.05-2.7-.09-1.82-1.64-3.31-3.46-3.35Z"/>
      <path class="cls-1" d="M83.18,9.17v4.23c0,.44-.36.8-.8.8h-.85c-1.61,0-3.09.03-4.73.15-.42.03-.74.38-.74.8v13.55c0,.44-.36.8-.8.8h-4.27c-.44,0-.8-.36-.8-.8V10.21c0-.39.28-.72.66-.79l.7-.12c3.46-.62,6.81-.93,9.97-.93h.85c.44,0,.8.36.8.8Z"/>
      <path class="cls-1" d="M103.44,8.62c-3.33-.64-5.67-.97-9.24-.97-6.22,0-10.43,4.36-10.47,10.84h0c0,6.49,4.24,11.01,10.32,11.01,1.74,0,3.29-.3,4.86-.98v.42h5.87V8.88l-1.34-.26ZM98.9,22.6c-1.64.98-2.98,1.37-4.56,1.37-2.93,0-4.75-2.07-4.75-5.39,0-2.01.64-5.39,4.94-5.39,1.51,0,2.85.08,4.37.27v9.14Z"/>
      <path class="cls-1" d="M33.66,13.98c.6,0,1.09-.49,1.09-1.09v-3.81c0-.6-.49-1.09-1.09-1.09h-3.69V1.65c0-.6-.49-1.09-1.09-1.09h-3.81c-.6,0-1.09.49-1.09,1.09v13.92c0,1.03-1.31,1.48-1.94.67L10.16.98c-.21-.26-.52-.42-.86-.42h-3.45c-.6,0-1.09.49-1.09,1.09v6.35H1.09c-.6,0-1.09.49-1.09,1.09v3.81c0,.6.49,1.09,1.09,1.09h3.69v2.1H1.09c-.6,0-1.09.49-1.09,1.09v3.81c0,.6.49,1.08,1.09,1.08h3.69v6.35c0,.6.49,1.09,1.09,1.09h3.81c.6,0,1.09-.49,1.09-1.09v-13.83c0-1.03,1.31-1.48,1.94-.67l11.77,15.16c.21.26.52.42.86.42h3.56c.6,0,1.09-.49,1.09-1.09v-6.35h3.69c.6,0,1.09-.49,1.09-1.08v-3.81c0-.6-.49-1.09-1.09-1.09h-3.69v-2.1h3.69Z"/>
    </g>
  </g>
</svg>