<?xml version="1.0" encoding="UTF-8"?>
<svg id="Layer_2" data-name="Layer 2" xmlns="http://www.w3.org/2000/svg" viewBox="0 0 85.79 85.79">
  <defs>
    <style>
      .cls-1 {
        fill: #d3c11c;
      }

      .cls-1, .cls-2, .cls-3, .cls-4 {
        stroke-width: 0px;
      }

      .cls-2 {
        fill: #084040;
      }

      .cls-3 {
        fill: #fff;
      }

      .cls-4 {
        fill: #f2e641;
      }
    </style>
  </defs>
  <g id="Layer_1-2" data-name="Layer 1">
    <g>
      <path class="cls-4" d="M57.24,0h-28.7c-3.77,0-7.37.73-10.67,2.06C7.4,6.28,0,16.55,0,28.55v28.7c0,1.89.18,3.74.53,5.53,2.58,13.12,14.14,23.01,28.01,23.01h28.7c.48,0,.95-.01,1.43-.04,15.11-.74,27.12-13.22,27.12-28.51v-28.7c0-15.77-12.78-28.55-28.55-28.55Z"/>
      <path class="cls-1" d="M83.73,67.91c-4.22,10.48-14.49,17.88-26.49,17.88h-23.83c-6.87-12.13-13.74-24.26-20.61-36.39,20.33-3.63,40.65-7.26,60.98-10.89,1.86,5.41,3.72,10.86,5.57,16.33,1.48,4.37,2.94,8.73,4.38,13.07Z"/>
      <path class="cls-3" d="M51.81,14.06h-17.83c-4.99,0-9.6,2.66-12.1,6.98l-8.91,15.44c-2.5,4.32-2.5,9.65,0,13.97l8.91,15.44c2.5,4.32,7.11,6.98,12.1,6.98h17.83c4.99,0,9.6-2.66,12.1-6.98l8.91-15.44c2.5-4.32,2.5-9.65,0-13.97l-8.91-15.44c-2.5-4.32-7.11-6.98-12.1-6.98Z"/>
      <g>
        <g>
          <g>
            <path class="cls-2" d="M30.12,32.03c-1.12,0-2.22.29-3.16.84-2.64,1.54-3.55,4.95-2,7.6,1.88,3.23,5.78,4.04,9.61,2.65,1.79-.65,4.58-1.81,6.3-2.54-3.11-4.19-6.12-8.56-10.75-8.56Z"/>
            <path class="cls-2" d="M55.67,32.03c1.12,0,2.22.29,3.16.84,2.64,1.54,3.55,4.95,2,7.6-1.88,3.23-5.78,4.04-9.61,2.65-1.79-.65-4.58-1.81-6.3-2.54,3.11-4.19,6.12-8.56,10.75-8.56Z"/>
          </g>
          <g>
            <path class="cls-2" d="M51.76,50.21c0-.17-.23-.41-.41-.5-5.68-2.9-11.35-2.7-17,.1-.15.07-.32.28-.32.42-.02,1.07,0,2.15.02,3.33,5.93-2.71,11.72-2.73,17.69,0,.01-1.21.05-2.29.02-3.36Z"/>
            <path class="cls-2" d="M34.75,55.91c.52,1.05,1.01,2.04,1.51,3.06,2.2-.74,4.36-1.15,6.6-1.16,2.26-.02,4.44.45,6.67,1.15.51-1.03,1-2.04,1.52-3.09-5.48-2.64-10.84-2.49-16.31.04Z"/>
            <path class="cls-2" d="M51,46.92c-.48-2.19-1.81-3.56-3.85-4.2-.99-.31-2.02-.55-3.04-.64-2.49-.22-4.92.04-7.1,1.43-1.24.79-1.86,2-2.25,3.42,5.44-2.29,10.83-2.29,16.24,0Z"/>
            <path class="cls-2" d="M37.74,61.06c1.74,1.74,3.4,3.4,5.03,5.03,1.19-.67,4.88-4.28,5.17-5.14-3.37-.97-6.72-.93-10.2.11Z"/>
          </g>
          <path class="cls-2" d="M42.89,37.91c-1.11,0-2.23-.42-3.08-1.27l-4.18-4.18c-.82-.82-1.27-1.91-1.27-3.08s.45-2.26,1.27-3.08l4.18-4.18c1.7-1.7,4.46-1.7,6.15,0l4.18,4.18c.82.82,1.27,1.91,1.27,3.08s-.45,2.26-1.27,3.08l-4.18,4.18c-.85.85-1.96,1.27-3.08,1.27ZM40.78,35.67c1.16,1.16,3.06,1.16,4.22,0l4.18-4.18c.56-.56.87-1.31.87-2.11s-.31-1.55-.87-2.11l-4.18-4.18c-1.16-1.16-3.06-1.16-4.22,0l-4.18,4.18c-.56.56-.87,1.31-.87,2.11s.31,1.55.87,2.11l4.18,4.18Z"/>
        </g>
        <path class="cls-2" d="M46.27,29.16c.12,0,.22-.1.22-.22v-.79c0-.12-.1-.22-.22-.22h-.76v-1.31c0-.12-.1-.22-.22-.22h-.79c-.12,0-.22.1-.22.22v2.88c0,.21-.27.31-.4.14l-2.46-3.15c-.04-.05-.11-.09-.18-.09h-.71c-.12,0-.22.1-.22.22v1.31h-.76c-.12,0-.22.1-.22.22v.79c0,.12.1.22.22.22h.76v.43h-.76c-.12,0-.22.1-.22.22v.79c0,.12.1.22.22.22h.76v1.31c0,.12.1.22.22.22h.79c.12,0,.22-.1.22-.22v-2.86c0-.21.27-.31.4-.14l2.43,3.13c.04.05.11.09.18.09h.74c.12,0,.22-.1.22-.22v-1.31h.76c.12,0,.22-.1.22-.22v-.79c0-.12-.1-.22-.22-.22h-.76v-.43h.76Z"/>
      </g>
    </g>
  </g>
</svg>