<?xml version="1.0" encoding="UTF-8"?>
<svg id="Layer_2" data-name="Layer 2" xmlns="http://www.w3.org/2000/svg" viewBox="0 0 27.86 27.85">
  <defs>
    <style>
      .cls-1 {
        fill: #f17140;
        stroke-width: 0px;
      }
    </style>
  </defs>
  <g id="Layer_1-2" data-name="Layer 1">
    <g>
      <path class="cls-1" d="M27.86,13.28l-.03-.29c-.02-.18-.03-.37-.05-.55-.19-1.87-.74-3.61-1.63-5.19-1.99-3.55-5.01-5.86-8.97-6.87-.76-.19-1.59-.32-2.46-.36-.03,0-.05,0-.08-.01l-.09.24v-.25s-1.29,0-1.29,0l-.08.02c-1.05.05-2.1.23-3.1.52-2.11.62-3.99,1.68-5.59,3.15l.12-1.53c.01-.17-.11-.31-.27-.33l-2.38-.19c-.15-.01-.31.11-.32.28l-.62,7.68c0,.09.02.18.09.24l.13.1,7.92-1.16c.16-.02.28-.18.25-.34l-.35-2.36c-.02-.16-.18-.28-.34-.25l-1.9.28c3.08-2.86,7.63-3.59,11.53-1.79,4.58,2.11,7.01,7.02,5.91,11.93-1.07,4.79-5.41,8.26-10.33,8.26h-.04c-2.48,0-4.7-.8-6.59-2.35-2.69-2.2-4.02-5.14-3.96-8.71,0-.15-.11-.28-.25-.3l-2.71-.44c-.08-.01-.16,0-.23.06l-.1.1-.06,1.55.04.41c.02.2.04.41.06.61.19,1.83.74,3.57,1.62,5.16,1.62,2.93,4.02,5.04,7.13,6.29,1.36.55,2.81.86,4.31.94.03,0,.05,0,.08.01h.1s1.25.01,1.25.01l.26-.02c.19-.02.39-.04.58-.06,2.01-.21,3.88-.83,5.56-1.84,3.39-2.04,5.58-5.02,6.52-8.88.18-.72.29-1.5.33-2.32,0-.03,0-.06.01-.09v-.1s.01-1.25.01-1.25Z"/>
      <path class="cls-1" d="M15.46,6.22c0-.21-.17-.39-.39-.39h-2.5c-.21,0-.39.17-.39.39v.74c0,2.46,0,4.92,0,7.38,0,.16.08.37.2.49l5.94,6.12c.07.09.17.14.28.15,0,0,.01,0,.02,0,.11,0,.21-.04.29-.12l1.81-1.88-.63-.7c-1.52-1.59-3.05-3.18-4.57-4.77-.05-.05-.08-.12-.08-.19,0-1.91,0-3.82,0-5.73v-1.48Z"/>
    </g>
  </g>
</svg>