<?xml version="1.0" encoding="UTF-8"?>
<svg id="Layer_2" data-name="Layer 2" xmlns="http://www.w3.org/2000/svg" viewBox="0 0 31.89 46.66">
  <defs>
    <style>
      .cls-1 {
        fill: #f17140;
        stroke-width: 0px;
      }
    </style>
  </defs>
  <g id="Layer_1-2" data-name="Layer 1">
    <g>
      <path class="cls-1" d="M25.88,0H6.01C2.7,0,0,2.7,0,6.01v28.15h31.89V6.01c0-3.32-2.7-6.01-6.01-6.01ZM17.72,20.02h-.79c-.25,0-.41-.13-.46-.25-.03-.08-.08-.22.05-.36l3.43-4.11c.1-.11.24-.17.41-.17.16,0,.3.06.4.17l3.51,4.09c.13.16.1.3.06.38-.06.13-.21.25-.46.25h-.9c-.71,0-1.29.54-1.29,1.21v3.05c0,.22-.22.4-.49.4h-1.68c-.27,0-.49-.17-.49-.4v-3.05c0-.67-.57-1.21-1.28-1.21ZM14.06,23.32h.9c.25,0,.41.14.46.27.03.06.08.22-.05.36l-3.51,4.09c-.09.11-.25.17-.41.17s-.32-.06-.41-.17l-3.43-4.09c-.11-.16-.08-.3-.05-.36.06-.13.21-.27.46-.27h.79c.71,0,1.29-.54,1.29-1.19v-3.05c0-.22.22-.41.51-.41h1.67c.27,0,.49.19.49.41v3.05c0,.65.59,1.19,1.29,1.19ZM15.95,7.62c-1.14,0-2.05-.91-2.05-2.05s.91-2.05,2.05-2.05,2.05.94,2.05,2.05-.91,2.05-2.05,2.05Z"/>
      <path class="cls-1" d="M0,40.67c0,3.3,2.7,6,6.01,6h19.86c3.32,0,6.01-2.7,6.01-6v-3.93H0v3.93ZM13.9,41.48c0-1.14.91-2.05,2.05-2.05s2.05.91,2.05,2.05-.91,2.02-2.05,2.02-2.05-.91-2.05-2.02Z"/>
    </g>
  </g>
</svg>