<?xml version="1.0" encoding="UTF-8"?>
<svg id="Layer_2" data-name="Layer 2" xmlns="http://www.w3.org/2000/svg" viewBox="0 0 30.37 27.59">
  <defs>
    <style>
      .cls-1 {
        fill: #f17140;
        stroke-width: 0px;
      }
    </style>
  </defs>
  <g id="Layer_1-2" data-name="Layer 1">
    <g>
      <path class="cls-1" d="M8.68,14.87c-.1-.03-.16.09-.22.16-1.26,1.51-2.52,3.03-3.8,4.53-.24.29-.34.58-.34.94v6.67c0,.33.11.43.44.43h3.53c.47,0,.47,0,.47-.49v-5.92h0v-6.03c0-.09.06-.24-.07-.28Z"/>
      <path class="cls-1" d="M30.06.06c-1.92.76-3.85,1.51-5.77,2.27-.08.03-.2.04-.2.16,0,.1.14.12.22.16.49.22.97.45,1.46.66.24.1.27.2.1.41-2.27,2.84-4.54,5.68-6.8,8.54-.18.24-.27.18-.43,0-.7-.79-1.41-1.57-2.12-2.36-1.52-1.69-3.05-3.39-4.57-5.1-.31-.35-.32-.35-.63.02-1.38,1.66-2.77,3.31-4.16,4.98C4.83,12.59,2.48,15.4.13,18.18c-.17.2-.19.33.02.5.5.41.99.83,1.47,1.24.16.14.29.13.42-.04.16-.2.33-.39.49-.58,2.97-3.53,5.93-7.07,8.9-10.6.29-.35.3-.35.6-.02,2.21,2.47,4.43,4.95,6.64,7.41.33.37.35.38.66,0,.67-.84,1.33-1.68,2-2.52,2.16-2.72,4.32-5.43,6.48-8.15q.27-.33.54.02c.32.42.64.84.96,1.26.03,0,.06,0,.1,0,.08-.51.15-1.01.23-1.5.25-1.62.5-3.24.74-4.87.05-.34,0-.39-.3-.27Z"/>
      <path class="cls-1" d="M29.3,6.72s0,0,0-.01c0,0,0,0-.01,0h.02Z"/>
      <path class="cls-1" d="M27.69,8.54c-.13-.06-.18.09-.24.17-1.31,1.65-2.63,3.31-3.94,4.98-.14.18-.21.36-.21.59v12.88c0,.32.11.43.44.43h3.49q.52,0,.52-.52v-9.02h0v-9.21c0-.11.05-.25-.06-.3Z"/>
      <path class="cls-1" d="M14.15,13.75s-.03-.03-.05-.05c-.69-.78-1.38-1.54-2.06-2.32-.21-.24-.35-.23-.53,0-.21.28-.43.55-.67.8-.21.21-.27.45-.27.74v7.07h0v7.1q0,.49.47.49h3.39c.35,0,.53-.18.53-.53,0-3.68-.02-7.36.02-11.03,0-.91-.07-1.69-.85-2.27Z"/>
      <path class="cls-1" d="M21.44,16.36c-.11-.03-.17.12-.23.2-.62.79-1.23,1.56-1.85,2.35-.25.33-.28.33-.56.02-.46-.51-.92-1.03-1.38-1.53-.07-.08-.13-.24-.27-.18-.11.05-.06.2-.06.3v9.62c0,.33.1.44.43.44h3.49q.52,0,.52-.51v-5.14h0v-5.25c0-.11.06-.28-.08-.32Z"/>
      <path class="cls-1" d="M15.62,4.49c-.24,0-.44.2-.44.44s.2.44.44.44h.31v.81c0,.32.26.57.57.57s.57-.26.57-.57v-.81h1.36l.96,1.17c.11.13.27.21.44.21h.11c.32,0,.57-.26.57-.57v-.81h.53c.24,0,.44-.2.44-.44s-.2-.44-.44-.44h-.53v-.49h.53c.24,0,.44-.2.44-.44s-.2-.44-.44-.44h-.53v-.81c0-.32-.26-.57-.57-.57s-.57.26-.57.57v.81h-1.36l-.96-1.17c-.11-.13-.27-.21-.44-.21h-.12c-.32,0-.57.26-.57.57v.81h-.31c-.24,0-.44.2-.44.44s.2.44.44.44h.31v.49h-.31Z"/>
    </g>
  </g>
</svg>