<?xml version="1.0" encoding="UTF-8"?>
<svg id="Layer_2" data-name="Layer 2" xmlns="http://www.w3.org/2000/svg" viewBox="0 0 42.05 38.99">
  <defs>
    <style>
      .cls-1 {
        fill: #f17140;
        stroke-width: 0px;
      }
    </style>
  </defs>
  <g id="Layer_1-2" data-name="Layer 1">
    <g>
      <path class="cls-1" d="M21.02,38.98c-5.58,0-11.17-.02-16.75,0-1.97,0-3.71-1.34-4.15-3.2-.08-.35-.11-.73-.12-1.09C0,29.14,0,23.58,0,18.02c0-2.41,1.85-4.27,4.27-4.27,11.17,0,22.33,0,33.5,0,2.17,0,3.9,1.49,4.25,3.63.03.22.03.44.03.66,0,5.54-.02,11.08.01,16.62.01,2.1-1.48,3.94-3.53,4.27-.28.04-.57.05-.85.05-5.55,0-11.1,0-16.65,0ZM26.09,24.56l-6.2-3.38c-1.38-.75-3.06.25-3.06,1.82v6.75c0,1.57,1.68,2.57,3.06,1.82,2.07-1.12,4.13-2.24,6.2-3.37,1.44-.78,1.44-2.85,0-3.64Z"/>
      <rect class="cls-1" x="4.21" y="6.88" width="33.63" height="4.17" rx="2.07" ry="2.07"/>
      <rect class="cls-1" x="8.41" y="0" width="25.21" height="4.14" rx="2.07" ry="2.07"/>
    </g>
  </g>
</svg>